<svg width="18" height="19" viewBox="0 0 18 19" fill="none" xmlns="http://www.w3.org/2000/svg">
<g clip-path="url(#clip0_1663_3113)">
<path d="M10.5001 18.3589C10.3378 18.3589 10.1799 18.3063 10.0501 18.2089L7.05011 15.9589C6.95696 15.889 6.88136 15.7984 6.82929 15.6943C6.77722 15.5902 6.75011 15.4753 6.75011 15.3589V11.1439L1.48811 5.22414C1.1144 4.80254 0.870392 4.282 0.785417 3.72506C0.700443 3.16813 0.778116 2.5985 1.0091 2.08465C1.24008 1.57079 1.61455 1.13458 2.08749 0.828436C2.56043 0.522291 3.11173 0.359243 3.67511 0.358887L14.3251 0.358887C14.8884 0.359548 15.4396 0.522866 15.9123 0.829217C16.3851 1.13557 16.7593 1.57192 16.9901 2.08583C17.2208 2.59974 17.2982 3.16934 17.213 3.7262C17.1279 4.28305 16.8837 4.80346 16.5099 5.22489L11.2501 11.1439V17.6089C11.2501 17.8078 11.1711 17.9986 11.0304 18.1392C10.8898 18.2799 10.699 18.3589 10.5001 18.3589ZM8.25011 14.9839L9.75011 16.1089V10.8589C9.75026 10.6753 9.81778 10.4981 9.93986 10.3609L15.3909 4.22814C15.5726 4.0227 15.6912 3.76917 15.7324 3.49798C15.7736 3.22679 15.7357 2.94946 15.6232 2.6993C15.5107 2.44914 15.3283 2.23678 15.0981 2.0877C14.8678 1.93863 14.5994 1.85917 14.3251 1.85889H3.67511C3.40095 1.8593 3.13272 1.9388 2.90261 2.08784C2.6725 2.23688 2.49026 2.44913 2.37776 2.69915C2.26526 2.94917 2.22727 3.22633 2.26835 3.4974C2.30943 3.76846 2.42783 4.02193 2.60936 4.22739L8.06111 10.3609C8.18292 10.4982 8.25016 10.6754 8.25011 10.8589V14.9839Z" fill="white"/>
</g>
<defs>
<clipPath id="clip0_1663_3113">
<rect width="18" height="18" fill="white" transform="translate(0 0.358887)"/>
</clipPath>
</defs>
</svg>
