<svg width="10" height="12" viewBox="0 0 10 12" fill="none" xmlns="http://www.w3.org/2000/svg">
<path d="M1.675 11.5417C1.38333 11.5417 1.13542 11.4397 0.93125 11.2355C0.727083 11.0313 0.625 10.7834 0.625 10.4917V5.00841C0.625 4.71675 0.727083 4.46883 0.93125 4.26466C1.13542 4.0605 1.38333 3.95841 1.675 3.95841H2.375V2.79175C2.375 2.06258 2.63011 1.44269 3.14033 0.932081C3.65094 0.421859 4.27083 0.166748 5 0.166748C5.72917 0.166748 6.34906 0.421859 6.85967 0.932081C7.36989 1.44269 7.625 2.06258 7.625 2.79175V3.95841H8.325C8.61667 3.95841 8.86458 4.0605 9.06875 4.26466C9.27292 4.46883 9.375 4.71675 9.375 5.00841V10.4917C9.375 10.7834 9.27292 11.0313 9.06875 11.2355C8.86458 11.4397 8.61667 11.5417 8.325 11.5417H1.675ZM1.675 10.6667H8.325C8.37361 10.6667 8.41503 10.6498 8.44925 10.616C8.48308 10.5818 8.5 10.5404 8.5 10.4917V5.00841C8.5 4.9598 8.48308 4.91839 8.44925 4.88416C8.41503 4.85033 8.37361 4.83341 8.325 4.83341H1.675C1.62639 4.83341 1.58517 4.85033 1.55133 4.88416C1.51711 4.91839 1.5 4.9598 1.5 5.00841V10.4917C1.5 10.5404 1.51711 10.5818 1.55133 10.616C1.58517 10.6498 1.62639 10.6667 1.675 10.6667ZM5 8.77091C5.28194 8.77091 5.52267 8.67136 5.72217 8.47225C5.92128 8.27275 6.02083 8.03203 6.02083 7.75008C6.02083 7.46814 5.92128 7.22741 5.72217 7.02791C5.52267 6.8288 5.28194 6.72925 5 6.72925C4.71806 6.72925 4.47733 6.8288 4.27783 7.02791C4.07872 7.22741 3.97917 7.46814 3.97917 7.75008C3.97917 8.03203 4.07872 8.27275 4.27783 8.47225C4.47733 8.67136 4.71806 8.77091 5 8.77091ZM3.25 3.95841H6.75V2.79175C6.75 2.30564 6.57986 1.89244 6.23958 1.55216C5.89931 1.21189 5.48611 1.04175 5 1.04175C4.51389 1.04175 4.10069 1.21189 3.76042 1.55216C3.42014 1.89244 3.25 2.30564 3.25 2.79175V3.95841Z" fill="#848484"/>
</svg>
