<svg width="22" height="19" viewBox="0 0 22 19" fill="none" xmlns="http://www.w3.org/2000/svg">
<path fill-rule="evenodd" clip-rule="evenodd" d="M0.247314 1.58333C0.247314 1.16341 0.40535 0.76068 0.686654 0.463748C0.967959 0.166815 1.34949 0 1.74731 0H19.7473C20.1451 0 20.5267 0.166815 20.808 0.463748C21.0893 0.76068 21.2473 1.16341 21.2473 1.58333C21.2473 2.00326 21.0893 2.40599 20.808 2.70292C20.5267 2.99985 20.1451 3.16667 19.7473 3.16667H1.74731C1.34949 3.16667 0.967959 2.99985 0.686654 2.70292C0.40535 2.40599 0.247314 2.00326 0.247314 1.58333ZM0.247314 9.5C0.247314 9.08007 0.40535 8.67735 0.686654 8.38041C0.967959 8.08348 1.34949 7.91667 1.74731 7.91667H19.7473C20.1451 7.91667 20.5267 8.08348 20.808 8.38041C21.0893 8.67735 21.2473 9.08007 21.2473 9.5C21.2473 9.91993 21.0893 10.3227 20.808 10.6196C20.5267 10.9165 20.1451 11.0833 19.7473 11.0833H1.74731C1.34949 11.0833 0.967959 10.9165 0.686654 10.6196C0.40535 10.3227 0.247314 9.91993 0.247314 9.5ZM0.247314 17.4167C0.247314 16.9967 0.40535 16.594 0.686654 16.2971C0.967959 16.0001 1.34949 15.8333 1.74731 15.8333H10.7473C11.1451 15.8333 11.5267 16.0001 11.808 16.2971C12.0893 16.594 12.2473 16.9967 12.2473 17.4167C12.2473 17.8366 12.0893 18.2393 11.808 18.5363C11.5267 18.8332 11.1451 19 10.7473 19H1.74731C1.34949 19 0.967959 18.8332 0.686654 18.5363C0.40535 18.2393 0.247314 17.8366 0.247314 17.4167Z" fill="#000"/>
</svg>
