<svg width="4" height="8" viewBox="0 0 4 8" fill="none" xmlns="http://www.w3.org/2000/svg">
<path d="M0.177088 6.98957C0.0895876 6.90207 0.0458374 6.79998 0.0458374 6.68332C0.0458374 6.56665 0.0895876 6.46457 0.177088 6.37707L2.55417 3.99998L0.177088 1.6229C0.0895876 1.5354 0.0458374 1.43332 0.0458374 1.31665C0.0458374 1.19998 0.0895876 1.0979 0.177088 1.0104C0.264588 0.9229 0.366671 0.87915 0.483337 0.87915C0.600004 0.87915 0.702088 0.9229 0.789588 1.0104L3.41459 3.6354C3.4632 3.68401 3.49975 3.73982 3.52425 3.80282C3.54837 3.86621 3.56042 3.93193 3.56042 3.99998C3.56042 4.06804 3.54837 4.13357 3.52425 4.19657C3.49975 4.25996 3.4632 4.31596 3.41459 4.36457L0.789588 6.98957C0.702088 7.07707 0.600004 7.12082 0.483337 7.12082C0.366671 7.12082 0.264588 7.07707 0.177088 6.98957Z" fill="#000"/>
</svg>
