<svg width="27" height="21" viewBox="0 0 27 21" fill="none" xmlns="http://www.w3.org/2000/svg">
<path d="M26.0019 6.87356C25.6782 6.57471 25.2548 6.37548 24.7816 6.37548C24.8065 6.37548 24.8314 6.37548 24.8563 6.37548V3.81034C24.8563 2.76437 24.433 1.81801 23.7356 1.12069C23.0383 0.423372 22.092 0 21.046 0H4.31034C3.26437 0 2.31801 0.423372 1.62069 1.12069C0.923372 1.81801 0.5 2.76437 0.5 3.81034V16.6858C0.5 17.7318 0.923372 18.6782 1.62069 19.3755C2.31801 20.0728 3.26437 20.4962 4.31034 20.4962H21.046C22.092 20.4962 23.0383 20.0728 23.7356 19.3755C24.433 18.6782 24.8563 17.7318 24.8563 16.6858V14.0958C24.8314 14.0958 24.8065 14.0958 24.7816 14.0958C25.2548 14.0958 25.6782 13.8966 26.0019 13.5977C26.3008 13.2989 26.5 12.8506 26.5 12.3774V8.09387C26.5 7.62069 26.3008 7.19732 26.0019 6.87356ZM23.4866 16.6609C23.4866 17.3333 23.2126 17.931 22.7644 18.3793C22.3161 18.8276 21.7184 19.1015 21.046 19.1015H4.31034C3.63793 19.1015 3.04023 18.8276 2.59195 18.3793C2.14368 17.931 1.86973 17.3333 1.86973 16.6609V3.81034C1.86973 3.13793 2.14368 2.54023 2.59195 2.09195C3.04023 1.64368 3.63793 1.36973 4.31034 1.36973H21.046C21.7184 1.36973 22.3161 1.64368 22.7644 2.09195C23.2126 2.54023 23.4866 3.13793 23.4866 3.81034V6.37548H15.7663C14.7203 6.37548 13.7989 6.79885 13.1015 7.47126C12.4291 8.14368 12.0057 9.09004 12.0057 10.136V10.3103C12.0057 11.3563 12.4291 12.2778 13.1015 12.9751C13.7739 13.6475 14.7203 14.0709 15.7663 14.0709H23.4866V16.6609ZM25.1303 12.3774C25.1303 12.477 25.0805 12.5766 25.0307 12.6264C24.9559 12.7011 24.8812 12.7261 24.7816 12.7261H15.7663C15.1188 12.7261 14.4962 12.4521 14.0728 12.0287C13.6494 11.6054 13.3755 10.9828 13.3755 10.3352V10.1609C13.3755 9.48851 13.6494 8.89081 14.0728 8.46743C14.5211 8.01916 15.1188 7.77012 15.7663 7.77012H24.7816C24.8812 7.77012 24.9808 7.81992 25.0307 7.86973C25.1054 7.94445 25.1303 8.01916 25.1303 8.11877V12.3774Z" fill="#FF0000"/>
</svg>
