<svg width="23" height="17" viewBox="0 0 23 17" fill="none" xmlns="http://www.w3.org/2000/svg">
<path d="M4.575 10.5499C4.34167 10.3332 4.23333 10.0666 4.25 9.7499C4.26667 9.43324 4.39167 9.19157 4.625 9.0249C5.49167 8.30824 6.46667 7.7539 7.55 7.3619C8.63333 6.97057 9.78333 6.7749 11 6.7749C12.2333 6.7749 13.3917 6.9749 14.475 7.3749C15.5583 7.7749 16.5333 8.33324 17.4 9.0499C17.6333 9.23324 17.7543 9.4749 17.763 9.7749C17.771 10.0749 17.6583 10.3416 17.425 10.5749C17.2083 10.7916 16.95 10.8999 16.65 10.8999C16.35 10.8999 16.075 10.8166 15.825 10.6499C15.1417 10.1166 14.396 9.70824 13.588 9.4249C12.7793 9.14157 11.9167 8.9999 11 8.9999C10.0833 8.9999 9.221 9.1459 8.413 9.4379C7.60433 9.72924 6.86667 10.1332 6.2 10.6499C5.93333 10.8332 5.65 10.9166 5.35 10.8999C5.05 10.8832 4.79167 10.7666 4.575 10.5499ZM0.325 6.3249C0.108333 6.10824 0 5.84557 0 5.5369C0 5.2289 0.108333 4.98324 0.325 4.7999C1.75833 3.5499 3.37933 2.56657 5.188 1.8499C6.996 1.13324 8.93333 0.774902 11 0.774902C13.0667 0.774902 15.004 1.13324 16.812 1.8499C18.6207 2.56657 20.2417 3.5499 21.675 4.7999C21.8917 4.98324 22.0043 5.2249 22.013 5.5249C22.021 5.8249 21.9083 6.09157 21.675 6.3249C21.4583 6.54157 21.2 6.6499 20.9 6.6499C20.6 6.6499 20.3333 6.55824 20.1 6.3749C18.85 5.30824 17.4543 4.4789 15.913 3.8869C14.371 3.29557 12.7333 2.9999 11 2.9999C9.26667 2.9999 7.62933 3.29557 6.088 3.8869C4.546 4.4789 3.15 5.30824 1.9 6.3749C1.66667 6.55824 1.4 6.6499 1.1 6.6499C0.8 6.6499 0.541667 6.54157 0.325 6.3249ZM11 16.0999C10.5167 16.0999 10.1127 15.9332 9.788 15.5999C9.46267 15.2666 9.3 14.8582 9.3 14.3749C9.3 13.8916 9.46267 13.4876 9.788 13.1629C10.1127 12.8376 10.5167 12.6749 11 12.6749C11.4833 12.6749 11.8877 12.8376 12.213 13.1629C12.5377 13.4876 12.7 13.8916 12.7 14.3749C12.7 14.8582 12.5377 15.2666 12.213 15.5999C11.8877 15.9332 11.4833 16.0999 11 16.0999Z" fill="white"/>
</svg>
